<?xml version="1.0" standalone="no"?>
<!DOCTYPE svg PUBLIC "-//W3C//DTD SVG 20010904//EN"
 "http://www.w3.org/TR/2001/REC-SVG-20010904/DTD/svg10.dtd">
<svg version="1.0" xmlns="http://www.w3.org/2000/svg"
 width="48.000000pt" height="48.000000pt" viewBox="0 0 48.000000 48.000000"
 preserveAspectRatio="xMidYMid meet">

<g transform="translate(0.000000,48.000000) scale(0.100000,-0.100000)"
fill="#000000" stroke="none">
<path d="M150 467 c-41 -6 -67 -12 -57 -15 9 -2 15 -8 12 -13 -4 -5 -2 -9 4
-9 6 0 6 -11 0 -32 -12 -44 -12 -128 1 -128 6 0 13 13 16 30 9 44 27 54 75 42
26 -6 52 -7 72 -1 42 12 74 -5 82 -42 4 -16 11 -29 17 -29 6 0 9 30 7 83 l-4
82 35 6 35 5 -35 7 c-58 12 -164 27 -175 26 -5 -1 -44 -6 -85 -12z"/>
<path d="M173 313 c9 -2 23 -2 30 0 6 3 -1 5 -18 5 -16 0 -22 -2 -12 -5z"/>
<path d="M283 313 c9 -2 23 -2 30 0 6 3 -1 5 -18 5 -16 0 -22 -2 -12 -5z"/>
<path d="M177 276 c-3 -8 -2 -18 3 -21 13 -8 24 15 12 27 -6 6 -11 4 -15 -6z"/>
<path d="M296 274 c-8 -22 1 -31 16 -16 9 9 9 15 1 23 -7 7 -12 5 -17 -7z"/>
<path d="M215 170 c3 -5 15 -10 25 -10 10 0 22 5 25 10 4 6 -7 10 -25 10 -18
0 -29 -4 -25 -10z"/>
<path d="M123 129 c-35 -10 -57 -37 -68 -81 l-7 -28 191 0 c125 0 191 4 191
10 0 34 -32 82 -64 95 -52 22 -72 19 -100 -17 l-26 -33 -26 33 c-27 34 -38 36
-91 21z"/>
</g>
</svg>
